<?xml version="1.0" encoding="UTF-8"?>
<!DOCTYPE svg PUBLIC "-//W3C//DTD SVG 1.1//EN" "http://www.w3.org/Graphics/SVG/1.1/DTD/svg11.dtd">
<svg xmlns="http://www.w3.org/2000/svg" version="1.1" width="500px" height="112px" style="shape-rendering:geometricPrecision; text-rendering:geometricPrecision; image-rendering:optimizeQuality; fill-rule:evenodd; clip-rule:evenodd" xmlns:xlink="http://www.w3.org/1999/xlink">
<g><path fill="white" d="M 141.5,102.5 C 141.5,102.167 141.5,101.833 141.5,101.5C 141.667,69.8316 141.5,38.1649 141,6.5C 138.88,10.4807 135.714,11.814 131.5,10.5C 133.562,9.22367 135.896,8.39034 138.5,8C 137.747,6.51299 136.914,6.34633 136,7.5C 133.26,6.71779 130.426,6.21779 127.5,6C 102.635,5.62519 78.1352,5.45853 54,5.5C 52.6842,8.68835 52.1842,12.0217 52.5,15.5C 54.7925,15.2436 56.9592,15.5769 59,16.5C 59.8518,15.4293 60.6851,14.4293 61.5,13.5C 61.5,15.5 61.5,17.5 61.5,19.5C 60.6153,23.7836 57.9486,25.2836 53.5,24C 52.6195,23.2917 51.9528,22.4584 51.5,21.5C 51.5,16.8333 51.5,12.1667 51.5,7.5C 51.8588,5.62901 52.8588,4.12901 54.5,3C 82.5,2.33333 110.5,2.33333 138.5,3C 139.931,3.46524 141.097,4.29857 142,5.5C 142.831,38.0026 142.664,70.3359 141.5,102.5 Z"/></g>
<g><path fill="white" d="M 131.5,10.5 C 131.557,11.609 131.89,12.609 132.5,13.5C 132.167,13.5 131.833,13.5 131.5,13.5C 114.622,14.4268 97.6219,14.4268 80.5,13.5C 74.1667,13.5 67.8333,13.5 61.5,13.5C 60.6851,14.4293 59.8518,15.4293 59,16.5C 56.9592,15.5769 54.7925,15.2436 52.5,15.5C 52.1842,12.0217 52.6842,8.68835 54,5.5C 78.1352,5.45853 102.635,5.62519 127.5,6C 130.426,6.21779 133.26,6.71779 136,7.5C 136.914,6.34633 137.747,6.51299 138.5,8C 135.896,8.39034 133.562,9.22367 131.5,10.5 Z"/></g>
<g><path fill="white" d="M 51.5,7.5 C 51.5,12.1667 51.5,16.8333 51.5,21.5C 50.7326,20.828 50.0659,19.9947 49.5,19C 50.1378,15.0648 50.8045,11.2315 51.5,7.5 Z"/></g>
<g><path fill="white" d="M 141.5,101.5 C 137.512,98.3211 132.845,96.8211 127.5,97C 103.48,96.4173 79.4796,96.4173 55.5,97C 54.5494,96.2825 54.3828,95.4491 55,94.5C 56.0495,95.5171 57.2161,95.6838 58.5,95C 57.5419,93.8525 57.8753,92.8525 59.5,92C 58.4829,90.9505 58.3162,89.7839 59,88.5C 59.8447,90.6115 60.678,92.6115 61.5,94.5C 85.1667,94.5 108.833,94.5 132.5,94.5C 132.5,67.5 132.5,40.5 132.5,13.5C 131.89,12.609 131.557,11.609 131.5,10.5C 135.714,11.814 138.88,10.4807 141,6.5C 141.5,38.1649 141.667,69.8316 141.5,101.5 Z"/></g>
<g><path fill="white" d="M 61.5,13.5 C 67.8333,13.5 74.1667,13.5 80.5,13.5C 74.69,14.4896 68.69,14.8229 62.5,14.5C 62.7845,16.4147 62.4511,18.0813 61.5,19.5C 61.5,17.5 61.5,15.5 61.5,13.5 Z"/></g>
<g><path fill="white" d="M 354.5,11.5 C 359.993,10.178 362.493,12.178 362,17.5C 357.942,20.6317 354.775,19.965 352.5,15.5C 353.18,14.1401 353.847,12.8068 354.5,11.5 Z"/></g>
<g><path fill="white" d="M 449.5,20.5 C 448.167,20.5 446.833,20.5 445.5,20.5C 445.5,19.5 445.5,18.5 445.5,17.5C 446.514,14.3111 448.18,11.4778 450.5,9C 454.506,8.01263 456.339,9.51263 456,13.5C 454.334,16.3312 452.168,18.6645 449.5,20.5 Z"/></g>
<g><path fill="white" d="M 445.5,17.5 C 445.5,18.5 445.5,19.5 445.5,20.5C 446.833,20.5 448.167,20.5 449.5,20.5C 448.686,22.2726 447.352,22.7726 445.5,22C 444.199,20.3845 444.199,18.8845 445.5,17.5 Z"/></g>
<g><path fill="white" d="M 191.5,18.5 C 188.893,16.678 186.893,17.178 185.5,20C 186.744,20.4561 187.577,19.9561 188,18.5C 189.517,19.9523 189.684,21.4523 188.5,23C 189.272,24.221 190.272,25.221 191.5,26C 189.881,26.2355 188.881,27.0689 188.5,28.5C 180.528,17.9909 172.695,17.9909 165,28.5C 163.734,32.3951 163.234,36.3951 163.5,40.5C 162.518,37.0381 162.185,33.3714 162.5,29.5C 159.95,29.5608 158.45,30.8941 158,33.5C 157.581,32.3279 156.915,31.3279 156,30.5C 154.711,33.3508 154.211,36.3508 154.5,39.5C 153.099,34.3768 153.766,29.3768 156.5,24.5C 157.906,24.0269 158.573,23.0269 158.5,21.5C 165.583,12.3113 174.583,9.81132 185.5,14C 188.106,14.7918 190.106,16.2918 191.5,18.5 Z"/></g>
<g><path fill="white" d="M 193.5,20.5 C 194.906,20.9731 195.573,21.9731 195.5,23.5C 194.094,23.0269 193.427,22.0269 193.5,20.5 Z"/></g>
<g><path fill="white" d="M 158.5,21.5 C 158.573,23.0269 157.906,24.0269 156.5,24.5C 156.427,22.9731 157.094,21.9731 158.5,21.5 Z"/></g>
<g><path fill="white" d="M 421.5,15.5 C 423.731,18.8363 425.397,22.503 426.5,26.5C 423.29,26.1497 422.29,24.6497 423.5,22C 421.997,20.0786 421.331,17.912 421.5,15.5 Z"/></g>
<g><path fill="white" d="M 260.5,23.5 C 259.598,25.3407 258.264,26.674 256.5,27.5C 256.5,27.1667 256.5,26.8333 256.5,26.5C 257.236,24.7706 258.57,23.7706 260.5,23.5 Z"/></g>
<g><path fill="white" d="M 73.5,26.5 C 68.3844,26.431 63.3844,27.0976 58.5,28.5C 61.8117,26.8926 65.3117,25.5593 69,24.5C 70.6225,25.0989 72.1225,25.7656 73.5,26.5 Z"/></g>
<g><path fill="white" d="M 419.5,13.5 C 420.833,13.5 421.5,14.1667 421.5,15.5C 421.331,17.912 421.997,20.0786 423.5,22C 422.29,24.6497 423.29,26.1497 426.5,26.5C 429.013,30.5227 430.679,34.8561 431.5,39.5C 430.527,40.7914 429.527,40.7914 428.5,39.5C 427.056,41.6079 426.39,43.9412 426.5,46.5C 421.901,46.2 417.401,46.5333 413,47.5C 412.125,45.4873 410.791,45.4873 409,47.5C 407.866,46.5748 406.699,45.5748 405.5,44.5C 405.667,43.8333 405.833,43.1667 406,42.5C 406.725,44.158 407.892,44.658 409.5,44C 407.122,43.0255 407.456,42.3589 410.5,42C 415.202,41.8283 419.868,41.3283 424.5,40.5C 425.718,39.1973 425.385,38.1973 423.5,37.5C 424.397,37.3309 425.397,36.9976 426.5,36.5C 423.972,35.4826 423.972,34.3159 426.5,33C 422.518,32.2424 420.184,31.0758 419.5,29.5C 419.33,28.1779 419.663,27.0113 420.5,26C 416.639,25.4309 416.639,24.5976 420.5,23.5C 418.527,22.6689 416.527,22.5022 414.5,23C 416.539,20.6148 416.539,18.4482 414.5,16.5C 416.733,17.0161 418.4,16.0161 419.5,13.5 Z"/></g>
<g><path fill="white" d="M 297.5,26.5 C 297.56,27.0431 297.893,27.3764 298.5,27.5C 300.523,25.8267 302.856,25.1601 305.5,25.5C 305.5,34.8333 305.5,44.1667 305.5,53.5C 302.338,50.9084 300.504,51.9084 300,56.5C 299.297,54.2199 298.131,52.2199 296.5,50.5C 297.127,49.5832 297.461,48.5832 297.5,47.5C 299.621,41.3518 298.287,36.1851 293.5,32C 287.387,30.1016 283.053,31.935 280.5,37.5C 280.189,36.5222 279.522,35.8555 278.5,35.5C 276.469,36.5387 275.136,38.2054 274.5,40.5C 274.167,40.3333 273.833,40.1667 273.5,40C 274.747,38.5421 274.747,37.0421 273.5,35.5C 275.854,33.7539 276.854,31.4206 276.5,28.5C 282.935,21.4363 289.935,20.7696 297.5,26.5 Z"/></g>
<g><path fill="white" d="M 393.5,32.5 C 392.542,32.0472 391.708,31.3805 391,30.5C 390.148,33.5219 388.648,36.1886 386.5,38.5C 385.28,37.2889 384.113,37.2889 383,38.5C 383.152,36.9239 383.985,35.5905 385.5,34.5C 385.058,33.2613 384.391,32.2613 383.5,31.5C 379.167,31.5 374.833,31.5 370.5,31.5C 369.504,31.5858 368.671,31.2524 368,30.5C 367.257,28.5594 367.424,26.7261 368.5,25C 372.552,23.8993 376.719,23.3993 381,23.5C 385.281,23.3993 389.448,23.8993 393.5,25C 396.086,27.494 396.086,29.994 393.5,32.5 Z"/></g>
<g><path fill="white" d="M 257.5,59.5 C 258.788,57.9652 258.788,56.2985 257.5,54.5C 256.893,54.6236 256.56,54.9569 256.5,55.5C 255.711,55.2172 255.044,54.7172 254.5,54C 255.614,52.4301 256.947,51.0968 258.5,50C 257.584,49.7216 256.918,49.2216 256.5,48.5C 257.36,44.5662 257.693,40.5662 257.5,36.5C 258.171,35.1529 258.171,33.9862 257.5,33C 258.5,32.6667 259.5,32.3333 260.5,32C 258.808,30.6927 257.475,29.1927 256.5,27.5C 258.264,26.674 259.598,25.3407 260.5,23.5C 262.757,22.1974 264.59,22.864 266,25.5C 266.667,37.1667 266.667,48.8333 266,60.5C 263.013,68.5816 257.18,72.5816 248.5,72.5C 245.433,72.3934 242.433,71.8934 239.5,71C 233.408,68.2704 233.075,65.1037 238.5,61.5C 243.643,64.527 248.977,65.027 254.5,63C 255.71,61.9609 256.71,60.7942 257.5,59.5 Z"/></g>
<g><path fill="white" d="M 449.5,25.5 C 449.5,36.1667 449.5,46.8333 449.5,57.5C 447.466,60.1057 445.299,60.1057 443,57.5C 441.882,52.2742 441.382,46.9409 441.5,41.5C 441.667,36.8333 441.833,32.1667 442,27.5C 443.8,23.2581 446.3,22.5914 449.5,25.5 Z"/></g>
<g><path fill="white" d="M 344.5,30.5 C 344.831,38.1955 344.497,45.8622 343.5,53.5C 342.672,48.8685 342.172,44.2018 342,39.5C 341.828,44.2018 341.328,48.8685 340.5,53.5C 339.914,53.2907 339.414,52.9574 339,52.5C 338.792,46.449 338.292,40.449 337.5,34.5C 338.152,32.5497 337.152,31.5497 334.5,31.5C 330.52,30.3731 327.02,31.3731 324,34.5C 323.667,41.8333 323.333,49.1667 323,56.5C 320.17,60.2901 317.503,60.2901 315,56.5C 314.333,46.1667 314.333,35.8333 315,25.5C 318.646,22.6589 321.646,23.3255 324,27.5C 330.049,21.3009 336.383,20.9676 343,26.5C 343.791,27.745 344.291,29.0783 344.5,30.5 Z"/></g>
<g><path fill="white" d="M 355.5,23.5 C 357.722,23.178 359.556,23.8446 361,25.5C 361.667,36.1667 361.667,46.8333 361,57.5C 358.667,60.1667 356.333,60.1667 354,57.5C 353.333,46.8333 353.333,36.1667 354,25.5C 354.717,24.9558 355.217,24.2891 355.5,23.5 Z"/></g>
<g><path fill="white" d="M 370.5,31.5 C 374.833,31.5 379.167,31.5 383.5,31.5C 383.672,32.4916 383.338,33.1583 382.5,33.5C 378.5,32.8333 374.5,32.1667 370.5,31.5 Z"/></g>
<g><path fill="white" d="M 449.5,25.5 C 450.965,30.59 451.632,35.9233 451.5,41.5C 451.632,47.0767 450.965,52.41 449.5,57.5C 449.5,46.8333 449.5,36.1667 449.5,25.5 Z"/></g>
<g><path fill="white" d="M 73.5,26.5 C 74.7498,26.5774 75.5831,27.244 76,28.5C 76.8077,30.5787 76.641,32.5787 75.5,34.5C 69.6391,35.9569 63.9725,38.1235 58.5,41C 56.2481,43.7361 54.2481,46.5695 52.5,49.5C 52.6106,47.3523 51.944,47.019 50.5,48.5C 50.1667,48 49.8333,47.5 49.5,47C 51.1821,45.1049 51.6821,42.9383 51,40.5C 50.7508,41.624 50.2508,42.624 49.5,43.5C 49.3459,42.0909 49.1792,40.4242 49,38.5C 48.6582,40.6192 47.8249,40.9526 46.5,39.5C 49.2227,34.4441 53.2227,30.7774 58.5,28.5C 63.3844,27.0976 68.3844,26.431 73.5,26.5 Z"/></g>
<g><path fill="white" d="M 195.5,23.5 C 200.206,31.0097 200.54,38.6764 196.5,46.5C 196.643,44.7376 196.309,43.0709 195.5,41.5C 195.846,40.3044 196.346,40.3044 197,41.5C 197.826,36.4107 197.492,31.4107 196,26.5C 195.346,27.6956 194.846,27.6956 194.5,26.5C 195.127,25.5832 195.461,24.5832 195.5,23.5 Z"/></g>
<g><path fill="white" d="M 393.5,32.5 C 390.179,37.1518 386.513,41.4851 382.5,45.5C 382.36,43.8762 383.027,42.7096 384.5,42C 383,40.8333 381.5,39.6667 380,38.5C 379.28,40.0557 378.113,41.0557 376.5,41.5C 378.122,38.5451 380.122,35.8785 382.5,33.5C 383.338,33.1583 383.672,32.4916 383.5,31.5C 384.391,32.2613 385.058,33.2613 385.5,34.5C 383.985,35.5905 383.152,36.9239 383,38.5C 384.113,37.2889 385.28,37.2889 386.5,38.5C 388.648,36.1886 390.148,33.5219 391,30.5C 391.708,31.3805 392.542,32.0472 393.5,32.5 Z"/></g>
<g><path fill="white" d="M 220.5,22.5 C 227.653,22.1175 229.653,24.9508 226.5,31C 224.32,31.4188 222.154,31.2521 220,30.5C 218.289,30.4393 216.956,31.1059 216,32.5C 214.733,40.0624 214.066,47.7291 214,55.5C 212.057,59.4862 209.39,60.1529 206,57.5C 204.457,46.8033 204.457,36.1366 206,25.5C 209.488,22.5385 212.155,23.2052 214,27.5C 215.965,25.4497 218.132,23.783 220.5,22.5 Z"/></g>
<g><path fill="white" d="M 99.5,19.5 C 105.459,20.7584 106.959,24.0917 104,29.5C 95.0873,41.6582 86.4206,53.9915 78,66.5C 76.087,68.1869 73.9203,68.6869 71.5,68C 67,63.5 62.5,59 58,54.5C 57.0112,49.1597 59.1778,46.6597 64.5,47C 67.6301,49.128 70.4634,51.628 73,54.5C 80.6667,43.5 88.3333,32.5 96,21.5C 97.3024,20.9152 98.469,20.2485 99.5,19.5 Z"/></g>
<g><path fill="white" d="M 305.5,57.5 C 305.5,56.1667 305.5,54.8333 305.5,53.5C 305.5,44.1667 305.5,34.8333 305.5,25.5C 302.856,25.1601 300.523,25.8267 298.5,27.5C 297.893,27.3764 297.56,27.0431 297.5,26.5C 299.467,22.2344 302.3,21.5677 306,24.5C 306.826,35.6745 306.659,46.6745 305.5,57.5 Z"/></g>
<g><path fill="white" d="M 344.5,30.5 C 345.322,33.6649 345.989,36.9982 346.5,40.5C 345.757,46.1369 345.257,51.8036 345,57.5C 342.237,60.288 339.903,59.9547 338,56.5C 337.667,49.8333 337.333,43.1667 337,36.5C 336.634,34.5483 335.801,32.8816 334.5,31.5C 337.152,31.5497 338.152,32.5497 337.5,34.5C 338.292,40.449 338.792,46.449 339,52.5C 339.414,52.9574 339.914,53.2907 340.5,53.5C 341.328,48.8685 341.828,44.2018 342,39.5C 342.172,44.2018 342.672,48.8685 343.5,53.5C 344.497,45.8622 344.831,38.1955 344.5,30.5 Z"/></g>
<g><path fill="white" d="M 419.5,13.5 C 418.4,16.0161 416.733,17.0161 414.5,16.5C 416.539,18.4482 416.539,20.6148 414.5,23C 416.527,22.5022 418.527,22.6689 420.5,23.5C 416.639,24.5976 416.639,25.4309 420.5,26C 419.663,27.0113 419.33,28.1779 419.5,29.5C 420.184,31.0758 422.518,32.2424 426.5,33C 423.972,34.3159 423.972,35.4826 426.5,36.5C 425.397,36.9976 424.397,37.3309 423.5,37.5C 425.385,38.1973 425.718,39.1973 424.5,40.5C 419.868,41.3283 415.202,41.8283 410.5,42C 407.456,42.3589 407.122,43.0255 409.5,44C 407.892,44.658 406.725,44.158 406,42.5C 405.833,43.1667 405.667,43.8333 405.5,44.5C 406.699,45.5748 407.866,46.5748 409,47.5C 410.791,45.4873 412.125,45.4873 413,47.5C 417.401,46.5333 421.901,46.2 426.5,46.5C 426.39,43.9412 427.056,41.6079 428.5,39.5C 429.527,40.7914 430.527,40.7914 431.5,39.5C 434.489,44.2708 436.822,49.4375 438.5,55C 437.044,59.4863 434.544,60.3196 431,57.5C 429.688,55.0448 428.522,52.5448 427.5,50C 420.842,49.5004 414.175,49.3337 407.5,49.5C 407.236,55.5932 404.236,58.7599 398.5,59C 397.833,58 397.167,57 396.5,56C 402.524,42.2652 408.357,28.4319 414,14.5C 415.678,12.4468 417.511,12.1134 419.5,13.5 Z M 416.5,28.5 C 417.167,28.5 417.833,28.5 418.5,28.5C 420.026,32.3854 421.692,36.2188 423.5,40C 419.311,40.8119 415.311,40.6453 411.5,39.5C 413.176,38.8166 413.843,37.4832 413.5,35.5C 415.065,33.4907 416.065,31.1573 416.5,28.5 Z"/></g>
<g><path fill="white" d="M 413.5,35.5 C 413.843,37.4832 413.176,38.8166 411.5,39.5C 411.989,38.0048 412.655,36.6715 413.5,35.5 Z"/></g>
<g><path fill="white" d="M 418.5,28.5 C 417.833,28.5 417.167,28.5 416.5,28.5C 417.167,25.8333 417.833,25.8333 418.5,28.5 Z"/></g>
<g><path fill="white" d="M 256.5,26.5 C 256.5,26.8333 256.5,27.1667 256.5,27.5C 257.475,29.1927 258.808,30.6927 260.5,32C 259.5,32.3333 258.5,32.6667 257.5,33C 258.171,33.9862 258.171,35.1529 257.5,36.5C 253.592,31.3729 248.592,30.2062 242.5,33C 241.299,33.9025 240.465,35.0692 240,36.5C 239.502,39.8168 239.335,43.1501 239.5,46.5C 239.427,48.0269 240.094,49.0269 241.5,49.5C 246.744,52.3847 251.744,52.0514 256.5,48.5C 256.918,49.2216 257.584,49.7216 258.5,50C 256.947,51.0968 255.614,52.4301 254.5,54C 255.044,54.7172 255.711,55.2172 256.5,55.5C 254.365,58.6039 251.365,59.9372 247.5,59.5C 236.413,58.6799 230.746,52.6799 230.5,41.5C 231.339,28.8223 238.005,22.6557 250.5,23C 252.91,23.5995 254.91,24.7662 256.5,26.5 Z"/></g>
<g><path fill="white" d="M 239.5,46.5 C 240.906,46.9731 241.573,47.9731 241.5,49.5C 240.094,49.0269 239.427,48.0269 239.5,46.5 Z"/></g>
<g><path fill="white" d="M 276.5,28.5 C 276.854,31.4206 275.854,33.7539 273.5,35.5C 274.747,37.0421 274.747,38.5421 273.5,40C 273.833,40.1667 274.167,40.3333 274.5,40.5C 275.136,38.2054 276.469,36.5387 278.5,35.5C 279.522,35.8555 280.189,36.5222 280.5,37.5C 279.268,43.6904 281.268,48.3571 286.5,51.5C 287.449,52.1524 288.615,52.4857 290,52.5C 292.008,52.6932 293.508,52.0265 294.5,50.5C 295.167,49.1667 296.167,48.1667 297.5,47.5C 297.461,48.5832 297.127,49.5832 296.5,50.5C 298.131,52.2199 299.297,54.2199 300,56.5C 300.504,51.9084 302.338,50.9084 305.5,53.5C 305.5,54.8333 305.5,56.1667 305.5,57.5C 302.773,59.8745 300.106,59.5412 297.5,56.5C 287.089,62.5194 278.922,60.186 273,49.5C 270.212,41.6944 271.379,34.6944 276.5,28.5 Z"/></g>
<g><path fill="white" d="M 294.5,50.5 C 293.508,52.0265 292.008,52.6932 290,52.5C 288.615,52.4857 287.449,52.1524 286.5,51.5C 289.237,51.5987 291.904,51.2653 294.5,50.5 Z"/></g>
<g><path fill="white" d="M 382.5,45.5 C 381.772,47.7346 380.439,49.5679 378.5,51C 383.833,51.3333 389.167,51.6667 394.5,52C 395.982,54.5918 395.648,56.9251 393.5,59C 385.118,59.8029 376.785,59.6362 368.5,58.5C 366.876,57.1311 366.376,55.4645 367,53.5C 369.65,49.0251 372.817,45.0251 376.5,41.5C 378.113,41.0557 379.28,40.0557 380,38.5C 381.5,39.6667 383,40.8333 384.5,42C 383.027,42.7096 382.36,43.8762 382.5,45.5 Z"/></g>
<g><path fill="white" d="M 191.5,18.5 C 192.5,18.8333 193.167,19.5 193.5,20.5C 193.427,22.0269 194.094,23.0269 195.5,23.5C 195.461,24.5832 195.127,25.5832 194.5,26.5C 194.846,27.6956 195.346,27.6956 196,26.5C 197.492,31.4107 197.826,36.4107 197,41.5C 196.346,40.3044 195.846,40.3044 195.5,41.5C 196.309,43.0709 196.643,44.7376 196.5,46.5C 192.564,55.2312 185.73,59.8978 176,60.5C 163.688,58.687 156.521,51.687 154.5,39.5C 154.211,36.3508 154.711,33.3508 156,30.5C 156.915,31.3279 157.581,32.3279 158,33.5C 158.45,30.8941 159.95,29.5608 162.5,29.5C 162.185,33.3714 162.518,37.0381 163.5,40.5C 168.673,52.0433 176.34,54.0433 186.5,46.5C 187.906,46.0269 188.573,45.0269 188.5,43.5C 189.769,38.4859 189.769,33.4859 188.5,28.5C 188.881,27.0689 189.881,26.2355 191.5,26C 190.272,25.221 189.272,24.221 188.5,23C 189.684,21.4523 189.517,19.9523 188,18.5C 187.577,19.9561 186.744,20.4561 185.5,20C 186.893,17.178 188.893,16.678 191.5,18.5 Z"/></g>
<g><path fill="white" d="M 188.5,43.5 C 188.573,45.0269 187.906,46.0269 186.5,46.5C 186.427,44.9731 187.094,43.9731 188.5,43.5 Z"/></g>
<g><path fill="white" d="M 256.5,55.5 C 256.56,54.9569 256.893,54.6236 257.5,54.5C 258.788,56.2985 258.788,57.9652 257.5,59.5C 257.768,57.901 257.434,56.5676 256.5,55.5 Z"/></g>
<g><path fill="white" d="M 91.5,53.5 C 91.8893,56.5533 91.2227,59.22 89.5,61.5C 90.4196,59.1191 90.4196,56.7857 89.5,54.5C 89.9569,53.7025 90.6236,53.3691 91.5,53.5 Z"/></g>
<g><path fill="white" d="M 52.5,49.5 C 51.0451,61.2776 55.7118,69.2776 66.5,73.5C 65.6016,74.1577 64.6016,74.8243 63.5,75.5C 63.6231,77.8357 63.9565,80.1691 64.5,82.5C 63.1667,82.5 61.8333,82.5 60.5,82.5C 59.1667,82.1667 57.8333,81.8333 56.5,81.5C 56.5,81.1667 56.5,80.8333 56.5,80.5C 56.0269,79.0937 55.0269,78.427 53.5,78.5C 53.0269,77.0937 52.0269,76.427 50.5,76.5C 49.8288,75.1529 49.8288,73.9862 50.5,73C 47.526,71.4943 47.1927,69.8276 49.5,68C 47.2833,66.2765 44.95,64.7765 42.5,63.5C 41.3889,58.5842 41.2223,53.5842 42,48.5C 42.4717,44.8895 43.9717,41.8895 46.5,39.5C 47.8249,40.9526 48.6582,40.6192 49,38.5C 49.1792,40.4242 49.3459,42.0909 49.5,43.5C 50.2508,42.624 50.7508,41.624 51,40.5C 51.6821,42.9383 51.1821,45.1049 49.5,47C 49.8333,47.5 50.1667,48 50.5,48.5C 51.944,47.019 52.6106,47.3523 52.5,49.5 Z"/></g>
<g><path fill="white" d="M 244.5,62.5 C 245.946,61.3871 247.613,61.2204 249.5,62C 247.866,62.4935 246.199,62.6602 244.5,62.5 Z"/></g>
<g><path fill="white" d="M 87.5,65.5 C 87.573,67.0269 86.9063,68.0269 85.5,68.5C 85.427,66.9731 86.0937,65.9731 87.5,65.5 Z"/></g>
<g><path fill="white" d="M 42.5,63.5 C 44.95,64.7765 47.2833,66.2765 49.5,68C 47.1927,69.8276 47.526,71.4943 50.5,73C 49.8288,73.9862 49.8288,75.1529 50.5,76.5C 46.5832,73.0121 43.9166,68.6788 42.5,63.5 Z"/></g>
<g><path fill="white" d="M 85.5,68.5 C 85.0269,69.9063 84.0269,70.573 82.5,70.5C 82.9731,69.0937 83.9731,68.427 85.5,68.5 Z"/></g>
<g><path fill="white" d="M 82.5,70.5 C 82.4226,71.7498 81.756,72.5831 80.5,73C 78.8659,73.4935 77.1992,73.6602 75.5,73.5C 77.649,72.2638 79.9823,71.2638 82.5,70.5 Z"/></g>
<g><path fill="white" d="M 78.5,83.5 C 73.6367,83.8195 68.97,83.4861 64.5,82.5C 63.9565,80.1691 63.6231,77.8357 63.5,75.5C 64.6016,74.8243 65.6016,74.1577 66.5,73.5C 69.5,73.5 72.5,73.5 75.5,73.5C 77.1992,73.6602 78.8659,73.4935 80.5,73C 81.756,72.5831 82.4226,71.7498 82.5,70.5C 84.0269,70.573 85.0269,69.9063 85.5,68.5C 86.9063,68.0269 87.573,67.0269 87.5,65.5C 87.6596,63.847 88.3263,62.5137 89.5,61.5C 91.2227,59.22 91.8893,56.5533 91.5,53.5C 93.9739,48.5802 97.1406,48.2469 101,52.5C 101.758,68.8989 94.2581,79.2322 78.5,83.5 Z"/></g>
<g><path fill="white" d="M 50.5,76.5 C 52.0269,76.427 53.0269,77.0937 53.5,78.5C 51.9731,78.573 50.9731,77.9063 50.5,76.5 Z"/></g>
<g><path fill="white" d="M 53.5,78.5 C 55.0269,78.427 56.0269,79.0937 56.5,80.5C 54.9731,80.573 53.9731,79.9063 53.5,78.5 Z"/></g>
<g><path fill="white" d="M 56.5,81.5 C 55.8333,82.1667 55.8333,82.1667 56.5,81.5 Z"/></g>
<g><path fill="white" d="M 379.5,81.5 C 381.665,81.1159 383.332,81.7826 384.5,83.5C 382.031,84.0361 379.864,85.0361 378,86.5C 377.07,89.9739 378.237,92.3072 381.5,93.5C 382.955,92.6102 384.289,92.6102 385.5,93.5C 387.48,90.0685 388.98,86.4018 390,82.5C 390.893,81.2888 391.726,81.2888 392.5,82.5C 394.269,86.6437 395.936,90.8104 397.5,95C 397,95.1667 396.5,95.3333 396,95.5C 394.711,93.9146 393.211,92.5813 391.5,91.5C 389.085,91.7189 388.085,93.0523 388.5,95.5C 387.178,95.67 386.011,95.3366 385,94.5C 379.598,97.3869 376.098,95.7203 374.5,89.5C 375.193,86.0896 376.86,83.4229 379.5,81.5 Z M 390.5,86.5 C 391.167,86.8333 391.833,87.1667 392.5,87.5C 392.631,88.3764 392.298,89.0431 391.5,89.5C 390.614,88.675 390.281,87.675 390.5,86.5 Z"/></g>
<g><path fill="white" d="M 60.5,82.5 C 61.8333,82.5 63.1667,82.5 64.5,82.5C 68.97,83.4861 73.6367,83.8195 78.5,83.5C 76.1903,84.1638 73.6903,84.4971 71,84.5C 67.1952,84.6963 63.6952,84.0296 60.5,82.5 Z"/></g>
<g><path fill="white" d="M 277.5,94.5 C 277.833,93.8333 278.167,93.1667 278.5,92.5C 278.5,89.1667 278.5,85.8333 278.5,82.5C 278.81,81.2617 279.31,81.2617 280,82.5C 280.499,86.8206 280.666,91.1539 280.5,95.5C 279.209,95.7373 278.209,95.404 277.5,94.5 Z"/></g>
<g><path fill="white" d="M 305.5,81.5 C 307.842,81.5041 309.842,82.3375 311.5,84C 309.888,84.7203 308.388,84.5536 307,83.5C 306.308,84.0253 305.808,84.6919 305.5,85.5C 308.274,87.2155 310.608,89.3822 312.5,92C 309.58,96.7191 306.246,97.2191 302.5,93.5C 304.655,93.162 306.989,93.162 309.5,93.5C 309.191,90.6545 307.525,89.1545 304.5,89C 301.86,86.1099 302.194,83.6099 305.5,81.5 Z"/></g>
<g><path fill="white" d="M 192.5,81.5 C 200.373,82.7129 200.373,84.0463 192.5,85.5C 194.153,87.1214 196.153,88.2881 198.5,89C 200.203,92.7636 199.036,95.2636 195,96.5C 193.155,95.9505 191.655,94.9505 190.5,93.5C 192.885,93.7965 195.218,93.2965 197.5,92C 195.246,90.6233 193.08,89.1233 191,87.5C 190.252,85.1599 190.752,83.1599 192.5,81.5 Z"/></g>
<g><path fill="white" d="M 262.5,82.5 C 263.833,82.8333 263.833,83.1667 262.5,83.5C 261.167,83.5 259.833,83.5 258.5,83.5C 258.5,87.5 258.5,91.5 258.5,95.5C 258.167,95.5 257.833,95.5 257.5,95.5C 257.5,91.5 257.5,87.5 257.5,83.5C 256.127,83.6567 254.793,83.49 253.5,83C 256.482,82.502 259.482,82.3354 262.5,82.5 Z"/></g>
<g><path fill="white" d="M 362.5,86.5 C 362.5,89.5 362.5,92.5 362.5,95.5C 361.2,93.777 360.533,91.6103 360.5,89C 359.095,82.2397 361.761,79.7397 368.5,81.5C 368.5,82.5 368.5,83.5 368.5,84.5C 365.918,84.0254 363.918,84.6921 362.5,86.5 Z"/></g>
<g><path fill="white" d="M 392.5,87.5 C 391.833,87.1667 391.167,86.8333 390.5,86.5C 391.301,84.2071 391.968,84.5404 392.5,87.5 Z"/></g>
<g><path fill="white" d="M 262.5,83.5 C 261.791,84.404 260.791,84.7373 259.5,84.5C 259.815,88.3714 259.482,92.0381 258.5,95.5C 258.5,91.5 258.5,87.5 258.5,83.5C 259.833,83.5 261.167,83.5 262.5,83.5 Z"/></g>
<g><path fill="white" d="M 322.5,85.5 C 322.19,86.7383 321.69,86.7383 321,85.5C 320.502,88.8168 320.335,92.1501 320.5,95.5C 319.188,90.9848 319.188,86.3181 320.5,81.5C 322.111,82.3202 322.778,83.6536 322.5,85.5 Z"/></g>
<g><path fill="white" d="M 328.5,82.5 C 329.295,86.7853 329.628,91.1186 329.5,95.5C 328.691,93.7078 328.191,91.7078 328,89.5C 326,96.1667 324,96.1667 322,89.5C 321.809,91.7078 321.309,93.7078 320.5,95.5C 320.335,92.1501 320.502,88.8168 321,85.5C 321.69,86.7383 322.19,86.7383 322.5,85.5C 323.793,86.842 324.626,88.5087 325,90.5C 325.942,87.6262 327.109,84.9596 328.5,82.5 Z"/></g>
<g><path fill="white" d="M 340.5,82.5 C 339.081,83.4511 337.415,83.7845 335.5,83.5C 335.5,87.5 335.5,91.5 335.5,95.5C 334.2,93.777 333.533,91.6103 333.5,89C 332.09,82.2312 334.424,80.0646 340.5,82.5 Z"/></g>
<g><path fill="white" d="M 407.5,92.5 C 406.833,90.1667 406.167,87.8333 405.5,85.5C 403.958,84.6993 402.292,84.366 400.5,84.5C 400.5,87.5 400.5,90.5 400.5,93.5C 401.167,94.1667 401.833,94.8333 402.5,95.5C 401.167,95.5 399.833,95.5 398.5,95.5C 398.2,90.9014 398.533,86.4014 399.5,82C 407.367,81.5719 410.033,85.0719 407.5,92.5 Z"/></g>
<g><path fill="white" d="M 217.5,81.5 C 218.458,81.9528 219.292,82.6195 220,83.5C 221.167,87 222.333,90.5 223.5,94C 221.265,95.6453 220.265,94.8119 220.5,91.5C 218.833,91.5 217.167,91.5 215.5,91.5C 215.883,94.462 214.883,95.462 212.5,94.5C 213.979,90.0596 215.645,85.7263 217.5,81.5 Z M 217.5,85.5 C 220.383,87.9822 220.05,89.1489 216.5,89C 217.337,87.9887 217.67,86.8221 217.5,85.5 Z"/></g>
<g><path fill="white" d="M 273.5,84.5 C 274.737,85.9649 275.737,87.6316 276.5,89.5C 276.932,90.7095 277.599,91.7095 278.5,92.5C 278.167,93.1667 277.833,93.8333 277.5,94.5C 275.412,92.6644 274.079,90.3311 273.5,87.5C 273.5,87.1667 273.5,86.8333 273.5,86.5C 273.5,85.8333 273.5,85.1667 273.5,84.5 Z"/></g>
<g><path fill="white" d="M 329.5,95.5 C 329.628,91.1186 329.295,86.7853 328.5,82.5C 328.56,81.9569 328.893,81.6236 329.5,81.5C 330.596,84.7426 331.263,88.076 331.5,91.5C 331.415,93.3328 330.748,94.6661 329.5,95.5 Z"/></g>
<g><path fill="white" d="M 314.5,81.5 C 315.117,81.6107 315.617,81.944 316,82.5C 316.499,86.8206 316.666,91.1539 316.5,95.5C 315.5,95.5 314.5,95.5 313.5,95.5C 313.283,90.7697 313.617,86.1031 314.5,81.5 Z"/></g>
<g><path fill="white" d="M 342.5,83.5 C 343.139,84.0968 343.472,84.9302 343.5,86C 343.613,87.6991 342.947,88.8658 341.5,89.5C 340.508,89.6716 339.842,89.3382 339.5,88.5C 340.167,87.5 340.833,86.5 341.5,85.5C 341.328,84.5084 341.662,83.8417 342.5,83.5 Z"/></g>
<g><path fill="white" d="M 362.5,86.5 C 364.63,87.0319 366.63,87.8652 368.5,89C 367.007,90.3681 365.507,90.5348 364,89.5C 363.809,91.7078 363.309,93.7078 362.5,95.5C 362.5,92.5 362.5,89.5 362.5,86.5 Z"/></g>
<g><path fill="white" d="M 229.5,81.5 C 237.773,80.4094 240.106,83.4094 236.5,90.5C 237.89,92.1694 238.223,93.8361 237.5,95.5C 235.605,94.027 233.939,92.3603 232.5,90.5C 231.833,92.1667 231.167,93.8333 230.5,95.5C 229.507,90.8804 229.173,86.2137 229.5,81.5 Z M 231.5,84.5 C 236.735,84.341 237.401,85.6743 233.5,88.5C 231.889,87.6798 231.222,86.3464 231.5,84.5 Z"/></g>
<g><path fill="white" d="M 265.5,81.5 C 266.117,81.6107 266.617,81.944 267,82.5C 267.499,86.8206 267.666,91.1539 267.5,95.5C 266.5,95.5 265.5,95.5 264.5,95.5C 264.226,90.737 264.559,86.0704 265.5,81.5 Z"/></g>
<g><path fill="white" d="M 278.5,82.5 C 278.5,85.8333 278.5,89.1667 278.5,92.5C 277.599,91.7095 276.932,90.7095 276.5,89.5C 277.167,87.1667 277.833,84.8333 278.5,82.5 Z"/></g>
<g><path fill="white" d="M 340.5,82.5 C 341.492,82.3284 342.158,82.6618 342.5,83.5C 341.662,83.8417 341.328,84.5084 341.5,85.5C 339.958,84.6993 338.292,84.366 336.5,84.5C 336.5,85.8333 336.5,87.1667 336.5,88.5C 337.5,88.5 338.5,88.5 339.5,88.5C 339.842,89.3382 340.508,89.6716 341.5,89.5C 340.081,90.4511 338.415,90.7845 336.5,90.5C 336.784,92.4147 336.451,94.0813 335.5,95.5C 335.5,91.5 335.5,87.5 335.5,83.5C 337.415,83.7845 339.081,83.4511 340.5,82.5 Z"/></g>
<g><path fill="white" d="M 355.5,81.5 C 356.805,83.3972 357.471,85.7305 357.5,88.5C 357.167,90.8333 356.833,93.1667 356.5,95.5C 355.507,90.8804 355.173,86.2137 355.5,81.5 Z"/></g>
<g><path fill="white" d="M 162.5,89.5 C 170.196,89.1692 177.862,89.5025 185.5,90.5C 181.667,90.8333 177.833,91.1667 174,91.5C 169.771,91.4898 165.938,90.8232 162.5,89.5 Z"/></g>
<g><path fill="white" d="M 347.5,83.5 C 347.982,86.9458 347.982,90.2791 347.5,93.5C 346.2,90.7561 346.2,87.4228 347.5,83.5 Z"/></g>
<g><path fill="white" d="M 424.5,89.5 C 432.196,89.1692 439.862,89.5025 447.5,90.5C 443.667,90.8333 439.833,91.1667 436,91.5C 431.771,91.4898 427.938,90.8232 424.5,89.5 Z"/></g>
<g><path fill="white" d="M 273.5,84.5 C 273.5,85.1667 273.5,85.8333 273.5,86.5C 272.883,86.3893 272.383,86.056 272,85.5C 271.502,88.8168 271.335,92.1501 271.5,95.5C 270.2,93.777 269.533,91.6103 269.5,89C 269.667,86.8333 269.833,84.6667 270,82.5C 271.851,81.4632 273.017,82.1299 273.5,84.5 Z"/></g>
<g><path fill="white" d="M 413.5,81.5 C 414.496,81.4142 415.329,81.7476 416,82.5C 417.579,86.6591 419.079,90.8258 420.5,95C 420,95.1667 419.5,95.3333 419,95.5C 417.711,93.9146 416.211,92.5813 414.5,91.5C 412.728,92.3599 411.395,93.6932 410.5,95.5C 410.199,90.6914 411.199,86.0248 413.5,81.5 Z M 414.5,86.5 C 415.776,87.3864 415.776,88.3864 414.5,89.5C 413.438,88.5754 413.438,87.5754 414.5,86.5 Z"/></g>
<g><path fill="white" d="M 371.5,81.5 C 372.117,81.6107 372.617,81.944 373,82.5C 373.499,86.8206 373.666,91.1539 373.5,95.5C 372.5,95.5 371.5,95.5 370.5,95.5C 370.226,90.737 370.559,86.0704 371.5,81.5 Z"/></g>
<g><path fill="white" d="M 131.5,13.5 C 131.833,13.5 132.167,13.5 132.5,13.5C 132.5,40.5 132.5,67.5 132.5,94.5C 108.833,94.5 85.1667,94.5 61.5,94.5C 61.5,92.8333 61.5,91.1667 61.5,89.5C 62.4345,90.5676 62.7678,91.901 62.5,93.5C 85.5,93.5 108.5,93.5 131.5,93.5C 131.5,66.8333 131.5,40.1667 131.5,13.5 Z"/></g>
<g><path fill="white" d="M 262.5,82.5 C 259.482,82.3354 256.482,82.502 253.5,83C 254.793,83.49 256.127,83.6567 257.5,83.5C 257.5,87.5 257.5,91.5 257.5,95.5C 256.518,92.0381 256.185,88.3714 256.5,84.5C 255.167,84.5 253.833,84.5 252.5,84.5C 252.5,83.5 252.5,82.5 252.5,81.5C 256.042,81.1872 259.375,81.5206 262.5,82.5 Z"/></g>
<g><path fill="white" d="M 273.5,86.5 C 273.5,86.8333 273.5,87.1667 273.5,87.5C 272.833,90.1667 272.167,92.8333 271.5,95.5C 271.335,92.1501 271.502,88.8168 272,85.5C 272.383,86.056 272.883,86.3893 273.5,86.5 Z"/></g>
<g><path fill="white" d="M 286.5,81.5 C 287.458,81.9528 288.292,82.6195 289,83.5C 289.937,87.0838 291.104,90.5838 292.5,94C 290.265,95.6453 289.265,94.8119 289.5,91.5C 287.833,91.5 286.167,91.5 284.5,91.5C 284.735,94.8119 283.735,95.6453 281.5,94C 283.044,89.7513 284.71,85.5847 286.5,81.5 Z M 286.5,85.5 C 287.249,86.531 287.915,87.6976 288.5,89C 287.5,89.6667 286.5,89.6667 285.5,89C 286.337,87.9887 286.67,86.8221 286.5,85.5 Z"/></g>
<g><path fill="white" d="M 405.5,85.5 C 406.167,87.8333 406.833,90.1667 407.5,92.5C 406.7,94.7409 405.034,95.7409 402.5,95.5C 401.833,94.8333 401.167,94.1667 400.5,93.5C 402.144,93.7135 403.644,93.3802 405,92.5C 405.497,90.1902 405.663,87.8568 405.5,85.5 Z"/></g>
<g><path fill="white" d="M 202.5,81.5 C 203.117,81.6107 203.617,81.944 204,82.5C 204.499,86.1516 204.665,89.8183 204.5,93.5C 205.833,93.5 207.167,93.5 208.5,93.5C 210.298,77.5893 211.132,77.5893 211,93.5C 208,97.5 205,97.5 202,93.5C 201.238,89.4126 201.404,85.4126 202.5,81.5 Z"/></g>
<g><path fill="white" d="M 243.5,81.5 C 251.301,82.0936 253.801,86.0936 251,93.5C 247.596,97.224 244.263,97.224 241,93.5C 239.773,88.938 240.607,84.938 243.5,81.5 Z M 243.5,84.5 C 249.067,83.7532 250.9,86.0866 249,91.5C 246.565,94.2277 244.565,93.8943 243,90.5C 242.82,88.5116 242.986,86.5116 243.5,84.5 Z"/></g>
<g><path fill="white" d="M 347.5,83.5 C 346.2,87.4228 346.2,90.7561 347.5,93.5C 349.604,93.2011 351.604,93.5344 353.5,94.5C 353.333,94.8333 353.167,95.1667 353,95.5C 350.712,95.7375 348.212,95.7375 345.5,95.5C 345.334,91.1539 345.501,86.8206 346,82.5C 347.107,81.2881 347.607,81.6214 347.5,83.5 Z"/></g>
<g><path fill="white" d="M 61.5,89.5 C 61.5,91.1667 61.5,92.8333 61.5,94.5C 60.678,92.6115 59.8447,90.6115 59,88.5C 58.3162,89.7839 58.4829,90.9505 59.5,92C 57.8753,92.8525 57.5419,93.8525 58.5,95C 57.2161,95.6838 56.0495,95.5171 55,94.5C 54.3828,95.4491 54.5494,96.2825 55.5,97C 79.4796,96.4173 103.48,96.4173 127.5,97C 132.845,96.8211 137.512,98.3211 141.5,101.5C 141.5,101.833 141.5,102.167 141.5,102.5C 140.942,103.79 139.942,104.623 138.5,105C 110.833,105.667 83.1667,105.667 55.5,105C 53.3333,104.167 51.8333,102.667 51,100.5C 50.3333,96.5 50.3333,92.5 51,88.5C 55.3332,81.6319 58.8332,81.9652 61.5,89.5 Z"/></g>
<g><path fill="white" d="M 293.5,93.5 C 294.5,93.5 295.5,93.5 296.5,93.5C 296.884,95.6648 296.217,97.3315 294.5,98.5C 294.692,97.0382 294.359,95.3715 293.5,93.5 Z"/></g>
</svg>
